<?xml version="1.0" standalone="no"?>
<!DOCTYPE svg PUBLIC "-//W3C//DTD SVG 20010904//EN"
 "http://www.w3.org/TR/2001/REC-SVG-20010904/DTD/svg10.dtd">
<svg version="1.0" xmlns="http://www.w3.org/2000/svg"
 width="895.000000pt" height="895.000000pt" viewBox="0 0 895.000000 895.000000"
 preserveAspectRatio="xMidYMid meet">
<metadata>
Created by potrace 1.16, written by Peter Selinger 2001-2019
</metadata>
<g transform="translate(0.000000,895.000000) scale(0.100000,-0.100000)"
fill="#000000" stroke="none">
<path d="M165 8780 c-17 -19 -15 -22 81 -125 308 -328 558 -648 766 -980 604
-966 918 -2061 918 -3200 0 -1139 -314 -2234 -918 -3200 -208 -332 -458 -652
-766 -980 -96 -103 -98 -106 -81 -125 10 -11 22 -20 26 -20 4 0 61 51 126 113
868 830 1967 1382 3148 1581 1366 230 2759 -11 3963 -686 434 -243 817 -527
1227 -912 88 -83 109 -98 123 -89 9 5 18 17 20 26 2 8 -47 67 -110 133 -561
586 -998 1282 -1282 2039 -510 1359 -510 2881 0 4240 284 757 721 1453 1282
2039 63 66 112 125 110 133 -2 9 -11 21 -20 26 -14 9 -35 -6 -123 -89 -410
-385 -793 -669 -1227 -912 -1204 -675 -2597 -916 -3963 -686 -1181 199 -2280
751 -3148 1581 -65 62 -122 113 -126 113 -4 0 -16 -9 -26 -20z m600 -567 c840
-655 1917 -1093 2995 -1217 466 -54 973 -54 1435 0 1090 127 2140 557 3010
1231 55 42 95 71 89 63 -6 -8 -42 -55 -81 -105 -663 -860 -1089 -1909 -1217
-3000 -53 -450 -53 -970 0 -1420 93 -799 351 -1592 739 -2275 145 -255 316
-515 478 -725 39 -49 75 -97 81 -105 6 -8 -34 21 -89 63 -870 674 -1920 1104
-3010 1231 -462 54 -969 54 -1435 0 -1078 -124 -2155 -562 -2995 -1217 -49
-38 -96 -75 -104 -81 -8 -6 20 34 63 89 1559 2011 1699 4796 349 6959 -92 147
-245 366 -349 501 -43 55 -71 95 -63 89 8 -6 55 -43 104 -81z"/>
</g>
</svg>
