<?xml version="1.0" standalone="no"?>
<!DOCTYPE svg PUBLIC "-//W3C//DTD SVG 20010904//EN"
 "http://www.w3.org/TR/2001/REC-SVG-20010904/DTD/svg10.dtd">
<svg version="1.0" xmlns="http://www.w3.org/2000/svg"
 width="858.000000pt" height="859.000000pt" viewBox="0 0 858.000000 859.000000"
 preserveAspectRatio="xMidYMid meet">
<metadata>
Created by potrace 1.16, written by Peter Selinger 2001-2019
</metadata>
<g transform="translate(0.000000,859.000000) scale(0.100000,-0.100000)"
fill="#000000" stroke="none">
<path d="M20 8565 c0 -4 46 -55 102 -114 610 -639 1102 -1473 1367 -2321 195
-620 281 -1184 282 -1835 0 -283 -9 -449 -37 -695 -149 -1305 -736 -2552
-1646 -3496 -43 -45 -78 -85 -78 -89 0 -3 60 49 132 117 589 548 1244 961
1968 1240 1479 570 3136 537 4585 -90 641 -277 1263 -688 1753 -1157 60 -58
113 -105 117 -105 4 0 -40 50 -99 111 -741 773 -1280 1787 -1515 2849 -167
758 -187 1568 -57 2336 203 1195 775 2322 1615 3187 104 107 61 78 -77 -52
-954 -896 -2158 -1452 -3462 -1600 -856 -98 -1700 -14 -2533 250 -849 269
-1679 761 -2314 1373 -57 54 -103 95 -103 91z"/>
</g>
</svg>
