<?xml version="1.0" encoding="utf-8"?>
<!-- Svg Vector Icons : http://www.onlinewebfonts.com/icon -->
<!DOCTYPE svg PUBLIC "-//W3C//DTD SVG 1.1//EN" "http://www.w3.org/Graphics/SVG/1.1/DTD/svg11.dtd">
<svg version="1.1" xmlns="http://www.w3.org/2000/svg" xmlns:xlink="http://www.w3.org/1999/xlink" x="0px" y="0px" viewBox="0 0 1000 1000" enable-background="new 0 0 1000 1000" xml:space="preserve">
<metadata> Svg Vector Icons : http://www.onlinewebfonts.com/icon </metadata>
<g><g transform="translate(0.000000,511.000000) scale(0.100000,-0.100000)"><path d="M4868.7,4948.4c-49-46.5-61.2-83.3-61.2-178.8c0-195.9-46.5-612.3-100.4-869.5c-306.2-1523.5-1442.7-2821.7-2914.7-3336C1336.7,404.9,819.9,309.3,415.7,306.9c-169,0-198.4-7.3-249.8-61.2C26.3,108.5,121.8-85,327.6-85c186.1,0,634.4-51.5,867.1-98c1530.8-313.5,2807-1418.2,3338.5-2890.2c151.9-416.4,237.6-847.5,264.6-1312.8c12.2-244.9,24.5-301.3,66.1-347.8c68.6-75.9,195.9-73.5,274.3,7.3c53.9,51.4,61.2,80.8,61.2,220.4c0,411.5,93.1,928.3,249.8,1381.4c382.1,1109.6,1217.3,2052.6,2285.2,2574.3c534,262.1,1038.5,396.8,1697.4,450.7c347.8,27,382.1,34.3,423.7,85.7c53.9,63.7,58.8,166.6,14.7,225.3c-53.9,68.6-134.7,95.5-296.4,95.5c-227.8,0-698.1,66.1-974.8,134.7C7232.3,789.4,6078.7,1786.3,5544.7,3084.5c-205.8,502.1-345.4,1146.3-345.4,1597c0,166.6-41.6,286.6-110.2,313.5C5008.3,5024.4,4927.5,5007.2,4868.7,4948.4z M5098.9,3150.6c154.3-450.7,472.7-1011.6,803.4-1423.1c176.4-218,595.2-629.5,803.4-786.2c467.8-357.6,935.7-602.5,1579.8-823c19.6-4.9-80.8-53.9-227.8-105.3C6713-462.2,5605.9-1554.6,5116.1-2889.5c-49-134.7-98-262.1-105.3-281.7c-12.3-31.8-14.7-31.8-24.5,0C4589.4-2000.4,3935.5-1133.3,2960.6-491.6c-257.2,169-729.9,404.2-1043.4,514.4c-127.4,46.6-215.5,90.6-195.9,98c531.5,188.6,815.6,318.4,1153.7,529.1c729.9,453.1,1349.6,1119.4,1758.6,1890.9c127.4,242.5,345.4,774,345.4,845C4978.9,3461.7,5018.1,3385.7,5098.9,3150.6z"/></g></g>
</svg>